<?xml version="1.0" encoding="utf-8"?>
<!-- Generator: Adobe Illustrator 23.0.0, SVG Export Plug-In . SVG Version: 6.00 Build 0)  -->
<svg version="1.1" id="Layer_1" xmlns="http://www.w3.org/2000/svg" xmlns:xlink="http://www.w3.org/1999/xlink" x="0px" y="0px"
	 viewBox="0 0 875.4 1875.4" style="enable-background:new 0 0 875.4 1875.4;" xml:space="preserve">
<style type="text/css">
	.st0{fill:url(#SVGID_1_);}
</style>
<g>
	<linearGradient id="SVGID_1_" gradientUnits="userSpaceOnUse" x1="439.8" y1="1882.1" x2="439.8" y2="-0.9">
		<stop  offset="0" style="stop-color:#00438C"/>
		<stop  offset="1" style="stop-color:#0037FF"/>
	</linearGradient>
	<path class="st0" d="M876.8,1225.1V71.6c-2.6,0.3-5.3,0.5-8,0.5c-34.8,0-63-28.2-63-63c0-3.4,0.3-6.7,0.8-10H804l-17.5,14L769-0.9
		h-6l-17.5,14L728-0.9h-6l-17.5,14L687-0.9h-5l-17.5,14L647-0.9h-6l-17.5,14L606-0.9h-5l-17.5,14L566-0.9h-7l-17.5,14L524-0.9h-5
		l-17.5,14L484-0.9h-6l-17.5,14L443-0.9h-5l-17.5,14L403-0.9h-8l-17.5,14L360-0.9h-5l-17.5,14L320-0.9h-6l-17.5,14L279-0.9h-5
		l-17.5,14L239-0.9h-7l-17.5,14L197-0.9h-5l-17.5,14L157-0.9h-6l-17.5,14L116-0.9h-5l-17.5,14L76-0.9h-3c0.5,3.3,0.8,6.6,0.8,10
		c0,34.8-28.2,63-63,63c-2.7,0-5.4-0.2-8-0.5v1153.5c33.4,0,60.8,26.1,62.9,59h49.1v7H65.7c-1.6,33.4-29.1,60-62.9,60v468
		c34.8,0,63,28.2,63,63h7.9l18.8-15l18.8,15h2.4l18.8-15l18.8,15h3.4l18.8-15l18.8,15h2.4l18.8-15l18.8,15h4.4l18.8-15l18.8,15h2.4
		l18.8-15l18.8,15h3.4l18.8-15l18.8,15h2.4l18.8-15l18.8,15h5.4l18.8-15l18.8,15h2.4l18.8-15l18.8,15h3.4l18.8-15l18.8,15h2.4
		l18.8-15l18.8,15h4.4l18.8-15l18.8,15h2.4l18.8-15l18.8,15h3.4l18.8-15l18.8,15h2.4l18.8-15l18.8,15h3.4l18.8-15l18.8,15h3.4
		l18.8-15l18.8,15h9.5c0-34.8,28.2-63,63-63v-468c-33.8,0-61.4-26.6-62.9-60h-49.1v-7h49.1C816,1251.2,843.3,1225.1,876.8,1225.1z
		 M214.8,1291.1h-50v-7h50V1291.1z M314.8,1291.1h-50v-7h50V1291.1z M414.8,1291.1h-50v-7h50V1291.1z M514.8,1291.1h-50v-7h50
		V1291.1z M614.8,1291.1h-50v-7h50V1291.1z M714.8,1291.1h-50v-7h50V1291.1z"/>
</g>
</svg>
